<svg xmlns="http://www.w3.org/2000/svg" xmlns:xlink="http://www.w3.org/1999/xlink" width="2000" zoomAndPan="magnify" viewBox="0 0 1500 1499.999933" height="2000" preserveAspectRatio="xMidYMid meet" version="1.0"><defs><g/><clipPath id="1abec4b57e"><path d="M 27.605469 597.347656 L 501.441406 597.347656 L 501.441406 983.996094 L 27.605469 983.996094 Z M 27.605469 597.347656 " clip-rule="nonzero"/></clipPath><clipPath id="70e67bd720"><rect x="0" width="789" y="0" height="170"/></clipPath><clipPath id="149ac137f3"><rect x="0" width="947" y="0" height="245"/></clipPath></defs><path fill="#388b1e" d="M 204.722656 590.0625 C 204.722656 609.980469 188.578125 626.125 168.664062 626.125 C 148.746094 626.125 132.601562 609.980469 132.601562 590.0625 C 132.601562 570.148438 148.746094 554.003906 168.664062 554.003906 C 188.578125 554.003906 204.722656 570.148438 204.722656 590.0625 " fill-opacity="1" fill-rule="nonzero"/><path fill="#388b1e" d="M 173.796875 706.863281 C 148.378906 780.726562 161.476562 865.21875 223.472656 919.582031 C 301.335938 987.855469 419.808594 980.085938 488.082031 902.21875 C 489.972656 900.066406 491.796875 897.875 493.566406 895.660156 C 426.621094 965.3125 316.058594 970.621094 242.675781 906.277344 C 184.527344 855.289062 166.6875 775.429688 191.800781 706.917969 C 204.75 671.582031 229.203125 641.535156 260.945312 621.316406 C 270.746094 615.074219 280.261719 610.757812 288.796875 609.636719 C 288.796875 609.636719 211.679688 643.410156 203.515625 726.691406 C 203.515625 726.691406 288.34375 736.214844 310.910156 657.34375 C 327.867188 598.085938 339.378906 580.980469 348.675781 580.191406 C 323.5625 578.863281 216.640625 582.375 173.796875 706.863281 " fill-opacity="1" fill-rule="nonzero"/><g clip-path="url(#1abec4b57e)"><path fill="#80cc29" d="M 489.890625 919.558594 C 415.492188 991.5 297.089844 995.488281 217.882812 926.039062 C 151.445312 867.78125 137.410156 777.230469 164.648438 698.074219 C 172.320312 675.78125 181.914062 657.117188 192.691406 641.480469 C 182.347656 654.960938 172.914062 670.964844 164.957031 689.933594 C 128.367188 599.09375 47.179688 596.453125 27.605469 597.484375 C 35.105469 598.121094 44.382812 611.910156 58.050781 659.683594 C 76.246094 723.265625 144.632812 715.589844 144.632812 715.589844 C 138.050781 648.453125 75.878906 621.222656 75.878906 621.222656 C 82.761719 622.125 90.433594 625.609375 98.332031 630.640625 C 123.921875 646.9375 143.636719 671.164062 154.078125 699.648438 C 155.339844 703.09375 156.460938 706.574219 157.453125 710.082031 C 131.996094 788.292969 146.644531 876.832031 211.996094 934.136719 C 295.4375 1007.300781 422.398438 998.972656 495.566406 915.527344 C 497.589844 913.21875 499.539062 910.871094 501.441406 908.496094 C 497.714844 912.375 493.855469 916.054688 489.890625 919.558594 " fill-opacity="1" fill-rule="nonzero"/></g><path fill="#387abf" d="M 448.445312 796.757812 C 437.019531 858.863281 405.21875 874.550781 312.015625 866.828125 C 302.453125 866.035156 292.28125 865.929688 285.285156 871.109375 C 312.28125 931.246094 408.972656 936.492188 445.429688 877.960938 C 445.8125 877.335938 446.191406 876.710938 446.5625 876.078125 C 460.984375 851.492188 457.859375 822.792969 448.445312 796.757812 " fill-opacity="1" fill-rule="nonzero"/><path fill="#4fafe4" d="M 375.75 825.3125 C 375.75 825.3125 413.765625 802.652344 394.292969 758.6875 C 373 710.609375 375.75 692.75 375.75 692.75 C 375.75 692.75 381.242188 722.96875 397.042969 750.445312 C 412.839844 777.917969 408.03125 809.515625 375.75 825.3125 Z M 416.859375 736.613281 C 400.347656 708.898438 384.53125 679.871094 385.585938 648.679688 C 368.933594 664.523438 353.617188 681.777344 339.613281 700 C 307.601562 741.664062 272.078125 792.214844 278.871094 847.777344 C 279.425781 852.324219 280.328125 856.652344 281.515625 860.777344 C 313.726562 852.398438 348.085938 854.515625 379.699219 844.863281 C 389.355469 841.914062 397.589844 836.707031 404.613281 830.015625 C 430.089844 805.753906 434.867188 766.835938 416.859375 736.613281 " fill-opacity="1" fill-rule="nonzero"/><g transform="matrix(1, 0, 0, 1, 631, 819)"><g clip-path="url(#70e67bd720)"><g fill="#4fafe4" fill-opacity="1"><g transform="translate(1.034046, 136.357259)"><g><path d="M 57.453125 1.265625 C 46.679688 1.265625 37.195312 -0.300781 29 -3.4375 C 20.8125 -6.570312 14.421875 -11.085938 9.828125 -16.984375 C 5.242188 -22.890625 2.953125 -29.914062 2.953125 -38.0625 C 2.953125 -46.300781 5.269531 -53.367188 9.90625 -59.265625 C 14.539062 -65.171875 20.953125 -69.710938 29.140625 -72.890625 C 37.335938 -76.078125 46.773438 -77.671875 57.453125 -77.671875 C 61.472656 -77.671875 65.707031 -77.457031 70.15625 -77.03125 C 74.601562 -76.613281 78.816406 -76.050781 82.796875 -75.34375 C 86.773438 -74.644531 90.03125 -73.828125 92.5625 -72.890625 C 93.6875 -72.515625 94.664062 -71.8125 95.5 -70.78125 C 96.34375 -69.757812 96.71875 -68.6875 96.625 -67.5625 C 96.34375 -65.5 96.109375 -63.296875 95.921875 -60.953125 C 95.742188 -58.617188 95.515625 -56.375 95.234375 -54.21875 C 94.859375 -51.78125 94.015625 -50.234375 92.703125 -49.578125 C 91.390625 -48.921875 89.84375 -49.296875 88.0625 -50.703125 C 85.90625 -52.203125 83.210938 -53.488281 79.984375 -54.5625 C 76.753906 -55.644531 73.453125 -56.488281 70.078125 -57.09375 C 66.710938 -57.695312 63.625 -58 60.8125 -58 C 51.726562 -58 44.585938 -56.289062 39.390625 -52.875 C 34.203125 -49.457031 31.609375 -44.519531 31.609375 -38.0625 C 31.609375 -31.789062 34.414062 -26.96875 40.03125 -23.59375 C 45.644531 -20.226562 53.085938 -18.546875 62.359375 -18.546875 C 67.046875 -18.546875 72.03125 -19.363281 77.3125 -21 C 82.601562 -22.632812 87.078125 -24.953125 90.734375 -27.953125 C 92.234375 -29.359375 93.726562 -29.6875 95.21875 -28.9375 C 96.71875 -28.1875 97.5625 -26.734375 97.75 -24.578125 C 98.03125 -22.046875 98.285156 -19.46875 98.515625 -16.84375 C 98.753906 -14.226562 99.015625 -11.515625 99.296875 -8.703125 C 99.484375 -7.390625 99.222656 -6.21875 98.515625 -5.1875 C 97.816406 -4.164062 96.953125 -3.515625 95.921875 -3.234375 C 92.648438 -2.390625 88.742188 -1.613281 84.203125 -0.90625 C 79.660156 -0.207031 75.046875 0.328125 70.359375 0.703125 C 65.679688 1.078125 61.378906 1.265625 57.453125 1.265625 Z M 57.453125 1.265625 "/></g></g></g><g fill="#4fafe4" fill-opacity="1"><g transform="translate(103.842942, 136.357259)"><g><path d="M 20.078125 0.703125 C 18.585938 0.703125 16.691406 0.628906 14.390625 0.484375 C 12.097656 0.347656 10.15625 0.1875 8.5625 0 C 7.4375 -0.1875 6.5 -0.703125 5.75 -1.546875 C 5.007812 -2.390625 4.640625 -3.421875 4.640625 -4.640625 C 4.640625 -12.410156 4.707031 -20.554688 4.84375 -29.078125 C 4.988281 -37.597656 5.175781 -46.046875 5.40625 -54.421875 C 5.644531 -62.804688 5.945312 -70.648438 6.3125 -77.953125 C 6.6875 -85.253906 7.15625 -91.570312 7.71875 -96.90625 C 8 -99.25 9.3125 -100.65625 11.65625 -101.125 C 12.96875 -101.40625 14.515625 -101.59375 16.296875 -101.6875 C 18.078125 -101.78125 19.710938 -101.828125 21.203125 -101.828125 C 23.078125 -101.828125 25.253906 -101.78125 27.734375 -101.6875 C 30.222656 -101.59375 32.070312 -101.40625 33.28125 -101.125 C 34.3125 -100.9375 35.222656 -100.375 36.015625 -99.4375 C 36.816406 -98.5 37.125 -97.421875 36.9375 -96.203125 C 36.09375 -91.429688 35.390625 -85.90625 34.828125 -79.625 C 34.265625 -73.351562 33.816406 -66.773438 33.484375 -59.890625 C 33.160156 -53.015625 32.953125 -46.179688 32.859375 -39.390625 C 32.765625 -32.609375 32.832031 -26.21875 33.0625 -20.21875 C 33.300781 -14.226562 33.65625 -9.035156 34.125 -4.640625 C 34.3125 -3.421875 34.003906 -2.363281 33.203125 -1.46875 C 32.410156 -0.582031 31.457031 -0.046875 30.34375 0.140625 C 28.84375 0.328125 27.128906 0.46875 25.203125 0.5625 C 23.285156 0.65625 21.578125 0.703125 20.078125 0.703125 Z M 20.078125 0.703125 "/></g></g></g><g fill="#4fafe4" fill-opacity="1"><g transform="translate(145.275485, 136.357259)"><g><path d="M 59.125 1.265625 C 47.613281 1.265625 37.664062 -0.320312 29.28125 -3.5 C 20.90625 -6.6875 14.421875 -11.253906 9.828125 -17.203125 C 5.242188 -23.148438 2.953125 -30.242188 2.953125 -38.484375 C 2.953125 -46.628906 5.175781 -53.628906 9.625 -59.484375 C 14.070312 -65.335938 20.203125 -69.832031 28.015625 -72.96875 C 35.835938 -76.101562 44.757812 -77.671875 54.78125 -77.671875 C 63.957031 -77.671875 72.03125 -76.613281 79 -74.5 C 85.976562 -72.394531 91.429688 -69.421875 95.359375 -65.578125 C 99.296875 -61.742188 101.265625 -57.113281 101.265625 -51.6875 C 101.265625 -46.820312 99.507812 -42.675781 96 -39.25 C 92.488281 -35.832031 87.898438 -33.234375 82.234375 -31.453125 C 76.566406 -29.679688 70.457031 -28.796875 63.90625 -28.796875 C 58.382812 -28.796875 53.070312 -29.144531 47.96875 -29.84375 C 42.863281 -30.550781 38.25 -31.789062 34.125 -33.5625 C 32.164062 -34.40625 30.785156 -34.289062 29.984375 -33.21875 C 29.191406 -32.144531 29.546875 -30.8125 31.046875 -29.21875 C 32.722656 -27.15625 35.296875 -25.253906 38.765625 -23.515625 C 42.234375 -21.785156 46.144531 -20.382812 50.5 -19.3125 C 54.851562 -18.238281 59.179688 -17.703125 63.484375 -17.703125 C 67.234375 -17.703125 71.097656 -18.144531 75.078125 -19.03125 C 79.054688 -19.914062 82.914062 -21.128906 86.65625 -22.671875 C 90.40625 -24.222656 93.632812 -25.984375 96.34375 -27.953125 C 97.9375 -29.265625 99.410156 -29.613281 100.765625 -29 C 102.128906 -28.394531 102.859375 -27.015625 102.953125 -24.859375 C 103.140625 -22.609375 103.28125 -20.289062 103.375 -17.90625 C 103.46875 -15.519531 103.515625 -13.203125 103.515625 -10.953125 C 103.515625 -10.015625 103.300781 -9.097656 102.875 -8.203125 C 102.457031 -7.316406 101.828125 -6.691406 100.984375 -6.328125 C 97.703125 -4.734375 93.675781 -3.347656 88.90625 -2.171875 C 84.132812 -1.003906 79.148438 -0.140625 73.953125 0.421875 C 68.753906 0.984375 63.8125 1.265625 59.125 1.265625 Z M 57.3125 -41.015625 C 62.925781 -41.015625 67.347656 -41.785156 70.578125 -43.328125 C 73.804688 -44.867188 75.421875 -47.140625 75.421875 -50.140625 C 75.421875 -52.859375 73.875 -55.195312 70.78125 -57.15625 C 67.695312 -59.125 62.550781 -60.109375 55.34375 -60.109375 C 51.3125 -60.109375 47.328125 -59.640625 43.390625 -58.703125 C 39.460938 -57.773438 36.234375 -56.441406 33.703125 -54.703125 C 31.179688 -52.972656 29.921875 -50.890625 29.921875 -48.453125 C 29.921875 -47.046875 30.832031 -45.875 32.65625 -44.9375 C 34.476562 -44.007812 36.816406 -43.265625 39.671875 -42.703125 C 42.535156 -42.140625 45.535156 -41.71875 48.671875 -41.4375 C 51.804688 -41.15625 54.6875 -41.015625 57.3125 -41.015625 Z M 57.3125 -41.015625 "/></g></g></g><g fill="#4fafe4" fill-opacity="1"><g transform="translate(251.595604, 136.357259)"><g><path d="M 36.234375 1.265625 C 25.929688 1.265625 17.804688 -0.582031 11.859375 -4.28125 C 5.921875 -7.976562 2.953125 -13.523438 2.953125 -20.921875 C 2.953125 -28.316406 6.460938 -34.003906 13.484375 -37.984375 C 20.503906 -41.972656 30.242188 -44.476562 42.703125 -45.5 C 50.566406 -46.15625 56.675781 -46.738281 61.03125 -47.25 C 65.382812 -47.769531 68.445312 -48.5 70.21875 -49.4375 C 72 -50.375 72.890625 -51.6875 72.890625 -53.375 C 72.890625 -54.78125 71.484375 -56.160156 68.671875 -57.515625 C 65.867188 -58.867188 60.910156 -59.546875 53.796875 -59.546875 C 47.523438 -59.546875 41.085938 -58.726562 34.484375 -57.09375 C 27.878906 -55.457031 22.003906 -52.859375 16.859375 -49.296875 C 15.546875 -48.171875 14.140625 -48.03125 12.640625 -48.875 C 11.140625 -49.71875 10.4375 -51.125 10.53125 -53.09375 C 10.625 -54.125 10.8125 -55.644531 11.09375 -57.65625 C 11.375 -59.664062 11.675781 -61.703125 12 -63.765625 C 12.332031 -65.828125 12.546875 -67.328125 12.640625 -68.265625 C 12.828125 -69.390625 13.175781 -70.394531 13.6875 -71.28125 C 14.207031 -72.164062 14.984375 -72.75 16.015625 -73.03125 C 21.535156 -74.53125 27.476562 -75.675781 33.84375 -76.46875 C 40.21875 -77.269531 46.539062 -77.671875 52.8125 -77.671875 C 67.507812 -77.671875 79.023438 -75.117188 87.359375 -70.015625 C 95.691406 -64.910156 100.46875 -56.644531 101.6875 -45.21875 C 102.0625 -42.039062 102.4375 -38.0625 102.8125 -33.28125 C 103.1875 -28.507812 103.535156 -23.640625 103.859375 -18.671875 C 104.191406 -13.710938 104.40625 -9.316406 104.5 -5.484375 C 104.59375 -3.984375 104.191406 -2.765625 103.296875 -1.828125 C 102.410156 -0.890625 101.265625 -0.328125 99.859375 -0.140625 C 98.546875 0.140625 96.90625 0.347656 94.9375 0.484375 C 92.976562 0.628906 91.0625 0.703125 89.1875 0.703125 C 87.6875 0.703125 85.71875 0.65625 83.28125 0.5625 C 80.851562 0.46875 78.84375 0.234375 77.25 -0.140625 C 75.84375 -0.328125 74.671875 -0.957031 73.734375 -2.03125 C 72.796875 -3.113281 72.515625 -4.40625 72.890625 -5.90625 C 73.078125 -6.644531 73.285156 -7.785156 73.515625 -9.328125 C 73.753906 -10.878906 73.921875 -12.171875 74.015625 -13.203125 C 74.296875 -14.796875 73.941406 -15.78125 72.953125 -16.15625 C 71.972656 -16.53125 71.0625 -16.0625 70.21875 -14.75 C 68.257812 -11.84375 65.523438 -9.171875 62.015625 -6.734375 C 58.503906 -4.304688 54.523438 -2.363281 50.078125 -0.90625 C 45.628906 0.539062 41.015625 1.265625 36.234375 1.265625 Z M 48.875 -17.28125 C 52.4375 -17.28125 56.039062 -17.910156 59.6875 -19.171875 C 63.34375 -20.429688 66.382812 -22.09375 68.8125 -24.15625 C 71.25 -26.21875 72.46875 -28.515625 72.46875 -31.046875 C 72.46875 -32.910156 71.507812 -34.425781 69.59375 -35.59375 C 67.675781 -36.769531 64.328125 -37.359375 59.546875 -37.359375 C 54.585938 -37.359375 49.976562 -36.796875 45.71875 -35.671875 C 41.457031 -34.546875 38.039062 -33.046875 35.46875 -31.171875 C 32.894531 -29.304688 31.609375 -27.15625 31.609375 -24.71875 C 31.609375 -22.1875 32.914062 -20.3125 35.53125 -19.09375 C 38.15625 -17.882812 42.601562 -17.28125 48.875 -17.28125 Z M 48.875 -17.28125 "/></g></g></g><g fill="#4fafe4" fill-opacity="1"><g transform="translate(360.303392, 136.357259)"><g><path d="M 19.109375 0.703125 C 17.328125 0.703125 15.453125 0.628906 13.484375 0.484375 C 11.515625 0.347656 9.734375 0.1875 8.140625 0 C 7.109375 -0.1875 6.195312 -0.703125 5.40625 -1.546875 C 4.613281 -2.390625 4.265625 -3.46875 4.359375 -4.78125 C 4.359375 -12.644531 4.40625 -19.59375 4.5 -25.625 C 4.59375 -31.664062 4.78125 -37.210938 5.0625 -42.265625 C 5.34375 -47.328125 5.691406 -52.222656 6.109375 -56.953125 C 6.523438 -61.679688 7.015625 -66.710938 7.578125 -72.046875 C 7.859375 -74.484375 9.125 -75.9375 11.375 -76.40625 C 12.6875 -76.6875 14.207031 -76.875 15.9375 -76.96875 C 17.675781 -77.0625 19.335938 -77.109375 20.921875 -77.109375 C 22.515625 -77.109375 24.222656 -77.035156 26.046875 -76.890625 C 27.878906 -76.753906 29.6875 -76.59375 31.46875 -76.40625 C 32.488281 -76.3125 33.394531 -75.84375 34.1875 -75 C 34.988281 -74.15625 35.203125 -73.125 34.828125 -71.90625 C 33.890625 -68.914062 33.375 -66.53125 33.28125 -64.75 C 33.1875 -63.15625 33.46875 -62.238281 34.125 -62 C 34.78125 -61.769531 35.71875 -62.3125 36.9375 -63.625 C 41.8125 -68.675781 46.890625 -72.28125 52.171875 -74.4375 C 57.460938 -76.59375 63.664062 -77.671875 70.78125 -77.671875 C 78.925781 -77.671875 86.160156 -76.101562 92.484375 -72.96875 C 98.804688 -69.832031 103.863281 -65.570312 107.65625 -60.1875 C 111.445312 -54.800781 113.625 -48.691406 114.1875 -41.859375 C 114.65625 -37.546875 115.03125 -32.507812 115.3125 -26.75 C 115.59375 -21 115.734375 -13.675781 115.734375 -4.78125 C 115.734375 -3.375 115.332031 -2.269531 114.53125 -1.46875 C 113.738281 -0.675781 112.734375 -0.1875 111.515625 0 C 109.921875 0.1875 108.140625 0.347656 106.171875 0.484375 C 104.210938 0.628906 102.71875 0.703125 101.6875 0.703125 C 100.5625 0.703125 98.851562 0.628906 96.5625 0.484375 C 94.269531 0.347656 92.1875 0.1875 90.3125 0 C 89.1875 -0.1875 88.175781 -0.703125 87.28125 -1.546875 C 86.394531 -2.390625 86 -3.421875 86.09375 -4.640625 C 86.46875 -7.722656 86.75 -11.066406 86.9375 -14.671875 C 87.125 -18.273438 87.265625 -21.738281 87.359375 -25.0625 C 87.453125 -28.394531 87.453125 -31.132812 87.359375 -33.28125 C 87.171875 -38.0625 85.90625 -42.320312 83.5625 -46.0625 C 81.226562 -49.8125 78 -52.757812 73.875 -54.90625 C 69.757812 -57.0625 64.9375 -58.140625 59.40625 -58.140625 C 54.164062 -58.140625 49.484375 -57.039062 45.359375 -54.84375 C 41.242188 -52.644531 37.988281 -49.625 35.59375 -45.78125 C 33.207031 -41.945312 32.015625 -37.59375 32.015625 -32.71875 C 32.109375 -28.882812 32.269531 -24.53125 32.5 -19.65625 C 32.738281 -14.789062 33.234375 -9.785156 33.984375 -4.640625 C 34.171875 -3.421875 33.84375 -2.390625 33 -1.546875 C 32.164062 -0.703125 31.1875 -0.1875 30.0625 0 C 28.5625 0.1875 26.753906 0.347656 24.640625 0.484375 C 22.535156 0.628906 20.691406 0.703125 19.109375 0.703125 Z M 19.109375 0.703125 "/></g></g></g><g fill="#4fafe4" fill-opacity="1"><g transform="translate(479.825749, 136.357259)"><g><path d="M 59.125 1.265625 C 47.613281 1.265625 37.664062 -0.320312 29.28125 -3.5 C 20.90625 -6.6875 14.421875 -11.253906 9.828125 -17.203125 C 5.242188 -23.148438 2.953125 -30.242188 2.953125 -38.484375 C 2.953125 -46.628906 5.175781 -53.628906 9.625 -59.484375 C 14.070312 -65.335938 20.203125 -69.832031 28.015625 -72.96875 C 35.835938 -76.101562 44.757812 -77.671875 54.78125 -77.671875 C 63.957031 -77.671875 72.03125 -76.613281 79 -74.5 C 85.976562 -72.394531 91.429688 -69.421875 95.359375 -65.578125 C 99.296875 -61.742188 101.265625 -57.113281 101.265625 -51.6875 C 101.265625 -46.820312 99.507812 -42.675781 96 -39.25 C 92.488281 -35.832031 87.898438 -33.234375 82.234375 -31.453125 C 76.566406 -29.679688 70.457031 -28.796875 63.90625 -28.796875 C 58.382812 -28.796875 53.070312 -29.144531 47.96875 -29.84375 C 42.863281 -30.550781 38.25 -31.789062 34.125 -33.5625 C 32.164062 -34.40625 30.785156 -34.289062 29.984375 -33.21875 C 29.191406 -32.144531 29.546875 -30.8125 31.046875 -29.21875 C 32.722656 -27.15625 35.296875 -25.253906 38.765625 -23.515625 C 42.234375 -21.785156 46.144531 -20.382812 50.5 -19.3125 C 54.851562 -18.238281 59.179688 -17.703125 63.484375 -17.703125 C 67.234375 -17.703125 71.097656 -18.144531 75.078125 -19.03125 C 79.054688 -19.914062 82.914062 -21.128906 86.65625 -22.671875 C 90.40625 -24.222656 93.632812 -25.984375 96.34375 -27.953125 C 97.9375 -29.265625 99.410156 -29.613281 100.765625 -29 C 102.128906 -28.394531 102.859375 -27.015625 102.953125 -24.859375 C 103.140625 -22.609375 103.28125 -20.289062 103.375 -17.90625 C 103.46875 -15.519531 103.515625 -13.203125 103.515625 -10.953125 C 103.515625 -10.015625 103.300781 -9.097656 102.875 -8.203125 C 102.457031 -7.316406 101.828125 -6.691406 100.984375 -6.328125 C 97.703125 -4.734375 93.675781 -3.347656 88.90625 -2.171875 C 84.132812 -1.003906 79.148438 -0.140625 73.953125 0.421875 C 68.753906 0.984375 63.8125 1.265625 59.125 1.265625 Z M 57.3125 -41.015625 C 62.925781 -41.015625 67.347656 -41.785156 70.578125 -43.328125 C 73.804688 -44.867188 75.421875 -47.140625 75.421875 -50.140625 C 75.421875 -52.859375 73.875 -55.195312 70.78125 -57.15625 C 67.695312 -59.125 62.550781 -60.109375 55.34375 -60.109375 C 51.3125 -60.109375 47.328125 -59.640625 43.390625 -58.703125 C 39.460938 -57.773438 36.234375 -56.441406 33.703125 -54.703125 C 31.179688 -52.972656 29.921875 -50.890625 29.921875 -48.453125 C 29.921875 -47.046875 30.832031 -45.875 32.65625 -44.9375 C 34.476562 -44.007812 36.816406 -43.265625 39.671875 -42.703125 C 42.535156 -42.140625 45.535156 -41.71875 48.671875 -41.4375 C 51.804688 -41.15625 54.6875 -41.015625 57.3125 -41.015625 Z M 57.3125 -41.015625 "/></g></g></g><g fill="#4fafe4" fill-opacity="1"><g transform="translate(586.145881, 136.357259)"><g><path d="M 18.40625 0.703125 C 17.46875 0.703125 15.921875 0.628906 13.765625 0.484375 C 11.609375 0.347656 9.734375 0.1875 8.140625 0 C 7.015625 -0.1875 6.078125 -0.703125 5.328125 -1.546875 C 4.585938 -2.390625 4.21875 -3.421875 4.21875 -4.640625 C 4.21875 -12.410156 4.238281 -19.289062 4.28125 -25.28125 C 4.332031 -31.269531 4.40625 -36.835938 4.5 -41.984375 C 4.59375 -47.140625 4.753906 -52.128906 4.984375 -56.953125 C 5.222656 -61.773438 5.625 -66.851562 6.1875 -72.1875 C 6.457031 -74.71875 7.765625 -76.125 10.109375 -76.40625 C 11.421875 -76.59375 13.082031 -76.753906 15.09375 -76.890625 C 17.113281 -77.035156 18.914062 -77.109375 20.5 -77.109375 C 22 -77.109375 23.96875 -77.035156 26.40625 -76.890625 C 28.84375 -76.753906 30.625 -76.59375 31.75 -76.40625 C 33.144531 -76.125 34.238281 -75.515625 35.03125 -74.578125 C 35.832031 -73.640625 36 -72.65625 35.53125 -71.625 C 34.875 -69.570312 34.332031 -67.816406 33.90625 -66.359375 C 33.488281 -64.910156 33.28125 -62.96875 33.28125 -60.53125 C 33.28125 -59.03125 33.703125 -58.09375 34.546875 -57.71875 C 35.390625 -57.351562 36.234375 -57.960938 37.078125 -59.546875 C 40.546875 -65.921875 45.179688 -70.507812 50.984375 -73.3125 C 56.785156 -76.125 63.382812 -77.53125 70.78125 -77.53125 C 73.96875 -77.53125 77.363281 -77.109375 80.96875 -76.265625 C 84.570312 -75.421875 87.453125 -74.34375 89.609375 -73.03125 C 90.828125 -72.375 91.765625 -71.601562 92.421875 -70.71875 C 93.078125 -69.832031 93.40625 -68.6875 93.40625 -67.28125 C 93.40625 -64.1875 93.332031 -61.46875 93.1875 -59.125 C 93.050781 -56.789062 92.890625 -54.078125 92.703125 -50.984375 C 92.609375 -48.921875 91.644531 -47.675781 89.8125 -47.25 C 87.988281 -46.832031 86.421875 -47.1875 85.109375 -48.3125 C 81.179688 -51.3125 77.179688 -53.328125 73.109375 -54.359375 C 69.035156 -55.390625 64.984375 -55.90625 60.953125 -55.90625 C 56.085938 -55.90625 51.5 -54.6875 47.1875 -52.25 C 42.882812 -49.8125 39.375 -46.578125 36.65625 -42.546875 C 33.9375 -38.523438 32.578125 -34.082031 32.578125 -29.21875 C 32.578125 -24.71875 32.785156 -20.21875 33.203125 -15.71875 C 33.628906 -11.226562 34.03125 -7.535156 34.40625 -4.640625 C 34.59375 -3.328125 34.238281 -2.25 33.34375 -1.40625 C 32.457031 -0.5625 31.503906 -0.046875 30.484375 0.140625 C 28.984375 0.328125 27.109375 0.46875 24.859375 0.5625 C 22.609375 0.65625 20.457031 0.703125 18.40625 0.703125 Z M 18.40625 0.703125 "/></g></g></g><g fill="#4fafe4" fill-opacity="1"><g transform="translate(682.353664, 136.357259)"><g><path d="M 53.375 1.125 C 48.5 1.125 43.207031 0.796875 37.5 0.140625 C 31.789062 -0.515625 26.242188 -1.359375 20.859375 -2.390625 C 15.472656 -3.421875 10.859375 -4.453125 7.015625 -5.484375 C 4.398438 -6.410156 3.140625 -8.140625 3.234375 -10.671875 C 3.421875 -13.109375 3.5625 -15.566406 3.65625 -18.046875 C 3.75 -20.523438 3.84375 -22.984375 3.9375 -25.421875 C 4.125 -27.671875 4.960938 -29.050781 6.453125 -29.5625 C 7.953125 -30.082031 9.359375 -29.828125 10.671875 -28.796875 C 14.140625 -26.828125 18.238281 -24.953125 22.96875 -23.171875 C 27.695312 -21.390625 32.609375 -19.960938 37.703125 -18.890625 C 42.804688 -17.816406 47.65625 -17.28125 52.25 -17.28125 C 59.175781 -17.28125 64.367188 -17.722656 67.828125 -18.609375 C 71.296875 -19.492188 73.03125 -21.4375 73.03125 -24.4375 C 73.03125 -26.125 71.8125 -27.4375 69.375 -28.375 C 66.945312 -29.3125 63.742188 -30.0625 59.765625 -30.625 C 55.785156 -31.1875 51.40625 -31.742188 46.625 -32.296875 C 41.851562 -32.859375 37.054688 -33.609375 32.234375 -34.546875 C 27.410156 -35.484375 23.007812 -36.769531 19.03125 -38.40625 C 15.050781 -40.050781 11.84375 -42.253906 9.40625 -45.015625 C 6.976562 -47.773438 5.765625 -51.3125 5.765625 -55.625 C 5.765625 -60.488281 7.820312 -64.535156 11.9375 -67.765625 C 16.0625 -70.992188 21.726562 -73.425781 28.9375 -75.0625 C 36.144531 -76.707031 44.335938 -77.53125 53.515625 -77.53125 C 56.878906 -77.53125 60.710938 -77.34375 65.015625 -76.96875 C 69.328125 -76.59375 73.679688 -76.097656 78.078125 -75.484375 C 82.484375 -74.878906 86.375 -74.109375 89.75 -73.171875 C 90.875 -72.796875 91.8125 -72.1875 92.5625 -71.34375 C 93.3125 -70.507812 93.6875 -69.484375 93.6875 -68.265625 C 93.875 -66.296875 93.941406 -64.328125 93.890625 -62.359375 C 93.847656 -60.390625 93.828125 -58.425781 93.828125 -56.46875 C 93.828125 -53.84375 93.144531 -52.269531 91.78125 -51.75 C 90.425781 -51.238281 88.953125 -51.40625 87.359375 -52.25 C 83.242188 -54.40625 78.257812 -56.253906 72.40625 -57.796875 C 66.550781 -59.335938 60.722656 -60.109375 54.921875 -60.109375 C 51.265625 -60.109375 47.867188 -59.875 44.734375 -59.40625 C 41.597656 -58.9375 39.09375 -58.234375 37.21875 -57.296875 C 35.34375 -56.367188 34.40625 -55.15625 34.40625 -53.65625 C 34.40625 -52.0625 35.625 -50.816406 38.0625 -49.921875 C 40.5 -49.035156 43.726562 -48.3125 47.75 -47.75 C 51.78125 -47.1875 56.179688 -46.597656 60.953125 -45.984375 C 65.734375 -45.378906 70.507812 -44.609375 75.28125 -43.671875 C 80.0625 -42.742188 84.460938 -41.410156 88.484375 -39.671875 C 92.515625 -37.941406 95.742188 -35.671875 98.171875 -32.859375 C 100.609375 -30.054688 101.828125 -26.5 101.828125 -22.1875 C 101.828125 -15.351562 97.800781 -9.757812 89.75 -5.40625 C 81.695312 -1.050781 69.570312 1.125 53.375 1.125 Z M 53.375 1.125 "/></g></g></g></g></g><g transform="matrix(1, 0, 0, 1, 491, 625)"><g clip-path="url(#149ac137f3)"><g fill="#388b1e" fill-opacity="1"><g transform="translate(0.410333, 218.331803)"><g><path d="M 201.84375 -216.625 C 204.207031 -216.625 205.984375 -215.835938 207.171875 -214.265625 C 208.347656 -212.484375 208.640625 -210.410156 208.046875 -208.046875 L 154.5625 -8.578125 C 153.96875 -6.210938 152.6875 -4.238281 150.71875 -2.65625 C 148.351562 -0.882812 146.085938 0 143.921875 0 L 121.171875 0 C 117.421875 0 115.253906 -1.675781 114.671875 -5.03125 L 89.546875 -131.515625 C 89.148438 -133.085938 88.066406 -133.675781 86.296875 -133.28125 C 84.523438 -133.082031 83.34375 -132 82.75 -130.03125 L 50.234375 -8.578125 C 49.648438 -6.210938 48.367188 -4.238281 46.390625 -2.65625 C 44.222656 -0.882812 41.863281 0 39.3125 0 L 23.34375 0 C 20.976562 0 19.207031 -0.882812 18.03125 -2.65625 C 16.644531 -4.238281 16.25 -6.210938 16.84375 -8.578125 L 70.34375 -208.046875 C 70.925781 -210.410156 72.300781 -212.484375 74.46875 -214.265625 C 76.632812 -215.835938 78.898438 -216.625 81.265625 -216.625 L 104.03125 -216.625 C 107.769531 -216.625 109.835938 -214.945312 110.234375 -211.59375 L 135.65625 -85.109375 C 135.65625 -83.535156 136.738281 -82.945312 138.90625 -83.34375 C 140.476562 -83.738281 141.5625 -84.820312 142.15625 -86.59375 L 174.65625 -208.046875 C 175.25 -210.410156 176.726562 -212.484375 179.09375 -214.265625 C 181.257812 -215.835938 183.523438 -216.625 185.890625 -216.625 Z M 201.84375 -216.625 "/></g></g></g><g fill="#388b1e" fill-opacity="1"><g transform="translate(147.583682, 218.331803)"><g><path d="M 135.0625 0 C 130.925781 0 128.660156 -2.164062 128.265625 -6.5 L 128.265625 -15.953125 C 128.265625 -19.898438 128.363281 -25.320312 128.5625 -32.21875 C 128.164062 -36.550781 125.898438 -38.71875 121.765625 -38.71875 L 74.46875 -38.71875 C 72.300781 -38.71875 70.332031 -38.125 68.5625 -36.9375 C 66.59375 -35.757812 65.113281 -34.1875 64.125 -32.21875 C 61.375 -26.894531 58.816406 -22.066406 56.453125 -17.734375 C 54.085938 -13.398438 52.015625 -9.65625 50.234375 -6.5 C 49.253906 -4.53125 47.878906 -2.953125 46.109375 -1.765625 C 44.328125 -0.585938 42.453125 0 40.484375 0 L 23.640625 0 C 20.878906 0 18.910156 -1.179688 17.734375 -3.546875 C 16.347656 -5.710938 16.445312 -8.175781 18.03125 -10.9375 C 21.96875 -18.226562 26.988281 -27.488281 33.09375 -38.71875 C 39.007812 -49.75 45.414062 -61.765625 52.3125 -74.765625 C 59.207031 -87.578125 66.398438 -100.878906 73.890625 -114.671875 C 81.171875 -128.265625 88.160156 -141.265625 94.859375 -153.671875 C 101.367188 -165.890625 107.28125 -177.023438 112.59375 -187.078125 C 117.914062 -196.921875 122.054688 -204.601562 125.015625 -210.125 C 125.992188 -212.09375 127.46875 -213.664062 129.4375 -214.84375 C 131.21875 -216.03125 133.09375 -216.625 135.0625 -216.625 L 156.34375 -216.625 C 160.675781 -216.625 162.84375 -214.457031 162.84375 -210.125 L 162.84375 -10.9375 C 162.84375 -8.175781 161.757812 -5.710938 159.59375 -3.546875 C 157.226562 -1.179688 154.664062 0 151.90625 0 Z M 91.3125 -83.046875 C 89.738281 -80.285156 89.546875 -77.820312 90.734375 -75.65625 C 91.910156 -73.289062 93.878906 -72.109375 96.640625 -72.109375 L 117.328125 -72.109375 C 120.085938 -72.109375 122.648438 -73.289062 125.015625 -75.65625 C 127.378906 -77.820312 128.5625 -80.285156 128.5625 -83.046875 C 128.5625 -88.554688 128.5625 -94.46875 128.5625 -100.78125 C 128.363281 -107.082031 128.265625 -113.78125 128.265625 -120.875 C 128.265625 -123.039062 127.671875 -124.710938 126.484375 -125.890625 C 125.109375 -126.878906 123.535156 -127.375 121.765625 -127.375 C 119.984375 -127.375 118.207031 -126.878906 116.4375 -125.890625 C 114.46875 -124.710938 112.890625 -123.039062 111.703125 -120.875 C 108.359375 -114.570312 105.007812 -108.265625 101.65625 -101.953125 C 98.113281 -95.648438 94.664062 -89.347656 91.3125 -83.046875 Z M 91.3125 -83.046875 "/></g></g></g><g fill="#388b1e" fill-opacity="1"><g transform="translate(270.52358, 218.331803)"><g><path d="M 187.953125 -191.796875 C 187.367188 -189.429688 186.085938 -187.460938 184.109375 -185.890625 C 181.941406 -184.117188 179.578125 -183.234375 177.015625 -183.234375 L 150.125 -183.234375 C 147.757812 -183.234375 145.492188 -182.441406 143.328125 -180.859375 C 141.160156 -179.085938 139.78125 -177.019531 139.1875 -174.65625 L 94.5625 -8.578125 C 93.976562 -6.210938 92.703125 -4.238281 90.734375 -2.65625 C 88.566406 -0.882812 86.203125 0 83.640625 0 L 67.671875 0 C 65.304688 0 63.535156 -0.882812 62.359375 -2.65625 C 60.972656 -4.238281 60.578125 -6.210938 61.171875 -8.578125 L 105.796875 -174.65625 C 106.390625 -177.019531 106.09375 -179.085938 104.90625 -180.859375 C 103.726562 -182.441406 101.957031 -183.234375 99.59375 -183.234375 L 72.40625 -183.234375 C 70.039062 -183.234375 68.265625 -184.117188 67.078125 -185.890625 C 65.703125 -187.460938 65.3125 -189.429688 65.90625 -191.796875 L 70.34375 -208.046875 C 70.925781 -210.410156 72.300781 -212.484375 74.46875 -214.265625 C 76.632812 -215.835938 78.898438 -216.625 81.265625 -216.625 L 185.890625 -216.625 C 188.453125 -216.625 190.320312 -215.835938 191.5 -214.265625 C 192.6875 -212.484375 192.984375 -210.410156 192.390625 -208.046875 Z M 187.953125 -191.796875 "/></g></g></g><g fill="#388b1e" fill-opacity="1"><g transform="translate(402.03386, 218.331803)"><g><path d="M 190.03125 -216.625 C 192.394531 -216.625 194.164062 -215.835938 195.34375 -214.265625 C 196.53125 -212.484375 196.828125 -210.410156 196.234375 -208.046875 L 157.515625 -62.953125 C 155.148438 -54.273438 151.3125 -46.097656 146 -38.421875 C 140.675781 -30.734375 134.46875 -24.035156 127.375 -18.328125 C 120.082031 -12.609375 112.203125 -8.175781 103.734375 -5.03125 C 95.066406 -1.675781 86.394531 0 77.71875 0 C 69.050781 0 61.367188 -1.675781 54.671875 -5.03125 C 47.773438 -8.375 42.257812 -12.90625 38.125 -18.625 C 33.988281 -24.332031 31.328125 -31.03125 30.140625 -38.71875 C 28.765625 -46.195312 29.257812 -54.273438 31.625 -62.953125 L 70.34375 -208.046875 C 70.925781 -210.410156 72.300781 -212.484375 74.46875 -214.265625 C 76.632812 -215.835938 78.898438 -216.625 81.265625 -216.625 L 97.234375 -216.625 C 99.796875 -216.625 101.664062 -215.835938 102.84375 -214.265625 C 104.03125 -212.484375 104.328125 -210.410156 103.734375 -208.046875 L 65.015625 -63.828125 C 62.847656 -55.359375 63.929688 -48.171875 68.265625 -42.265625 C 72.597656 -36.347656 79.003906 -33.390625 87.484375 -33.390625 C 91.421875 -33.390625 95.359375 -34.179688 99.296875 -35.765625 C 103.234375 -37.140625 106.878906 -39.109375 110.234375 -41.671875 C 113.390625 -44.234375 116.148438 -47.285156 118.515625 -50.828125 C 120.867188 -54.378906 122.640625 -58.125 123.828125 -62.0625 L 162.84375 -208.046875 C 163.425781 -210.410156 164.898438 -212.484375 167.265625 -214.265625 C 169.429688 -215.835938 171.695312 -216.625 174.0625 -216.625 Z M 190.03125 -216.625 "/></g></g></g><g fill="#388b1e" fill-opacity="1"><g transform="translate(537.386038, 218.331803)"><g><path d="M 130.03125 -216.625 C 141.0625 -216.625 149.925781 -214.160156 156.625 -209.234375 C 163.320312 -204.109375 168.148438 -197.507812 171.109375 -189.4375 C 174.066406 -181.351562 175.25 -172.289062 174.65625 -162.25 C 174.0625 -152.195312 171.992188 -142.050781 168.453125 -131.8125 C 164.910156 -121.5625 159.984375 -111.804688 153.671875 -102.546875 C 147.367188 -93.285156 139.984375 -85.503906 131.515625 -79.203125 C 127.960938 -76.640625 126.382812 -73.585938 126.78125 -70.046875 L 132.390625 -11.53125 C 132.785156 -8.769531 131.800781 -6.207031 129.4375 -3.84375 C 127.070312 -1.28125 124.316406 0 121.171875 0 L 104.328125 0 C 100.179688 0 97.914062 -1.867188 97.53125 -5.609375 L 92.5 -58.8125 C 92.101562 -62.550781 89.835938 -64.421875 85.703125 -64.421875 L 73.890625 -64.421875 C 71.523438 -64.421875 69.253906 -63.632812 67.078125 -62.0625 C 64.910156 -60.289062 63.535156 -58.222656 62.953125 -55.859375 L 50.234375 -8.578125 C 49.648438 -6.210938 48.367188 -4.238281 46.390625 -2.65625 C 44.222656 -0.882812 41.957031 0 39.59375 0 L 23.34375 0 C 20.976562 0 19.207031 -0.882812 18.03125 -2.65625 C 16.644531 -4.238281 16.25 -6.210938 16.84375 -8.578125 L 70.34375 -208.046875 C 70.925781 -210.410156 72.300781 -212.484375 74.46875 -214.265625 C 76.632812 -215.835938 78.898438 -216.625 81.265625 -216.625 Z M 76.546875 -106.390625 C 75.953125 -104.023438 76.242188 -102.054688 77.421875 -100.484375 C 78.609375 -98.710938 80.382812 -97.828125 82.75 -97.828125 L 98.703125 -97.828125 C 104.816406 -97.828125 110.53125 -99.992188 115.84375 -104.328125 C 121.164062 -108.460938 125.796875 -113.679688 129.734375 -119.984375 C 133.484375 -126.285156 136.34375 -133.179688 138.3125 -140.671875 C 140.28125 -147.960938 141.164062 -154.757812 140.96875 -161.0625 C 140.570312 -167.363281 138.894531 -172.679688 135.9375 -177.015625 C 132.789062 -181.160156 128.066406 -183.234375 121.765625 -183.234375 L 105.796875 -183.234375 C 103.429688 -183.234375 101.164062 -182.441406 99 -180.859375 C 96.832031 -179.085938 95.453125 -177.019531 94.859375 -174.65625 Z M 76.546875 -106.390625 "/></g></g></g><g fill="#388b1e" fill-opacity="1"><g transform="translate(665.941067, 218.331803)"><g><path d="M 135.0625 0 C 130.925781 0 128.660156 -2.164062 128.265625 -6.5 L 128.265625 -15.953125 C 128.265625 -19.898438 128.363281 -25.320312 128.5625 -32.21875 C 128.164062 -36.550781 125.898438 -38.71875 121.765625 -38.71875 L 74.46875 -38.71875 C 72.300781 -38.71875 70.332031 -38.125 68.5625 -36.9375 C 66.59375 -35.757812 65.113281 -34.1875 64.125 -32.21875 C 61.375 -26.894531 58.816406 -22.066406 56.453125 -17.734375 C 54.085938 -13.398438 52.015625 -9.65625 50.234375 -6.5 C 49.253906 -4.53125 47.878906 -2.953125 46.109375 -1.765625 C 44.328125 -0.585938 42.453125 0 40.484375 0 L 23.640625 0 C 20.878906 0 18.910156 -1.179688 17.734375 -3.546875 C 16.347656 -5.710938 16.445312 -8.175781 18.03125 -10.9375 C 21.96875 -18.226562 26.988281 -27.488281 33.09375 -38.71875 C 39.007812 -49.75 45.414062 -61.765625 52.3125 -74.765625 C 59.207031 -87.578125 66.398438 -100.878906 73.890625 -114.671875 C 81.171875 -128.265625 88.160156 -141.265625 94.859375 -153.671875 C 101.367188 -165.890625 107.28125 -177.023438 112.59375 -187.078125 C 117.914062 -196.921875 122.054688 -204.601562 125.015625 -210.125 C 125.992188 -212.09375 127.46875 -213.664062 129.4375 -214.84375 C 131.21875 -216.03125 133.09375 -216.625 135.0625 -216.625 L 156.34375 -216.625 C 160.675781 -216.625 162.84375 -214.457031 162.84375 -210.125 L 162.84375 -10.9375 C 162.84375 -8.175781 161.757812 -5.710938 159.59375 -3.546875 C 157.226562 -1.179688 154.664062 0 151.90625 0 Z M 91.3125 -83.046875 C 89.738281 -80.285156 89.546875 -77.820312 90.734375 -75.65625 C 91.910156 -73.289062 93.878906 -72.109375 96.640625 -72.109375 L 117.328125 -72.109375 C 120.085938 -72.109375 122.648438 -73.289062 125.015625 -75.65625 C 127.378906 -77.820312 128.5625 -80.285156 128.5625 -83.046875 C 128.5625 -88.554688 128.5625 -94.46875 128.5625 -100.78125 C 128.363281 -107.082031 128.265625 -113.78125 128.265625 -120.875 C 128.265625 -123.039062 127.671875 -124.710938 126.484375 -125.890625 C 125.109375 -126.878906 123.535156 -127.375 121.765625 -127.375 C 119.984375 -127.375 118.207031 -126.878906 116.4375 -125.890625 C 114.46875 -124.710938 112.890625 -123.039062 111.703125 -120.875 C 108.359375 -114.570312 105.007812 -108.265625 101.65625 -101.953125 C 98.113281 -95.648438 94.664062 -89.347656 91.3125 -83.046875 Z M 91.3125 -83.046875 "/></g></g></g><g fill="#388b1e" fill-opacity="1"><g transform="translate(821.389205, 218.331803)"><g><path d="M 113.78125 -33.390625 C 116.144531 -33.390625 117.914062 -32.601562 119.09375 -31.03125 C 120.28125 -29.257812 120.578125 -27.191406 119.984375 -24.828125 L 115.546875 -8.578125 C 114.960938 -6.210938 113.679688 -4.238281 111.703125 -2.65625 C 109.535156 -0.882812 107.269531 0 104.90625 0 L 23.34375 0 C 20.976562 0 19.207031 -0.882812 18.03125 -2.65625 C 16.644531 -4.238281 16.25 -6.210938 16.84375 -8.578125 L 70.34375 -208.046875 C 70.925781 -210.410156 72.300781 -212.484375 74.46875 -214.265625 C 76.632812 -215.835938 78.898438 -216.625 81.265625 -216.625 L 97.53125 -216.625 C 99.894531 -216.625 101.664062 -215.835938 102.84375 -214.265625 C 104.03125 -212.484375 104.328125 -210.410156 103.734375 -208.046875 L 59.40625 -41.96875 C 58.613281 -39.601562 58.90625 -37.632812 60.28125 -36.0625 C 61.46875 -34.28125 63.242188 -33.390625 65.609375 -33.390625 Z M 113.78125 -33.390625 "/></g></g></g></g></g></svg>